<?xml version="1.0" encoding="UTF-8"?>
<!DOCTYPE svg PUBLIC "-//W3C//DTD SVG 1.1//EN" "http://www.w3.org/Graphics/SVG/1.1/DTD/svg11.dtd">
<!-- Creator: CorelDRAW X8 -->
<svg xmlns="http://www.w3.org/2000/svg" xml:space="preserve" width="356.443mm" height="268.237mm" version="1.1" style="shape-rendering:geometricPrecision; text-rendering:geometricPrecision; image-rendering:optimizeQuality; fill-rule:evenodd; clip-rule:evenodd"
viewBox="0 0 1642910 1236350"
 xmlns:xlink="http://www.w3.org/1999/xlink">
 <defs>
  <style type="text/css">
   <![CDATA[
    .fil0 {fill:#E2EED6;fill-rule:nonzero}
   ]]>
  </style>
 </defs>
 <g id="Слой_x0020_1">
  <metadata id="CorelCorpID_0Corel-Layer"/>
  <g id="_2419189051712">
   <g id="_1992655677936">
    <path class="fil0" d="M564456 918682c6946,-27179 17561,-52403 36957,-73486 252,451 535,789 641,1176 3234,11846 6967,23588 9475,35588 1558,7433 1817,15264 1664,22897 -342,16956 -7660,31226 -18647,43722 -9210,10467 -18920,20505 -27920,31144 -6125,7240 -11408,15189 -17072,22818 -375,506 -786,983 -1529,1905 -1612,-4849 -3356,-9210 -4504,-13721 -3746,-14692 -7647,-29358 -10791,-44184 -3912,-18466 -1128,-36259 7173,-53199 8251,-16844 20484,-30395 34878,-42164 2488,-2032 4905,-4150 7717,-5971 -10006,23607 -18768,47359 -18042,73475l0 0z"/>
    <path class="fil0" d="M1017253 959412c-12780,-24974 -28707,-47225 -52285,-63497 -146,493 -348,886 -367,1285 -534,12268 -1577,24547 -1374,36804 127,7593 1601,15289 3439,22696 4084,16464 14373,28763 27853,38520 11293,8173 22981,15815 34113,24203 7573,5706 14482,12293 21693,18480 479,408 983,783 1914,1517 499,-5084 1233,-9722 1357,-14376 405,-15155 971,-30323 755,-45476 -265,-18875 -6915,-35611 -18751,-50295 -11774,-14605 -26699,-25115 -43336,-33412 -2875,-1433 -5703,-2966 -8847,-4120 14978,20814 28772,42039 33835,67671l1 0z"/>
    <path class="fil0" d="M1135936 969997c-13269,-24716 -29629,-46651 -53523,-62459 -132,498 -328,894 -337,1296 -294,12275 -1097,24571 -653,36822 275,7586 1901,15251 3884,22624 4404,16379 14934,28473 28603,37964 11452,7953 23286,15364 34578,23531 7684,5556 14723,12005 22053,18051 487,399 1001,762 1944,1478 399,-5090 1043,-9742 1076,-14400 106,-15162 375,-30335 -139,-45482 -635,-18864 -7612,-35470 -19735,-49917 -12057,-14370 -27185,-24587 -43982,-32555 -2901,-1378 -5758,-2853 -8926,-3944 15382,20515 29592,41465 35157,66991l0 0z"/>
    <path class="fil0" d="M1299689 1067914c-13611,-24528 -30275,-46237 -54383,-61709 -130,498 -321,898 -324,1300 -123,12277 -755,24585 -142,36826 381,7585 2113,15226 4199,22571 4631,16315 15328,28261 29125,37561 11565,7793 23502,15039 34906,23048 7759,5450 14886,11801 22301,17742 489,394 1009,750 1964,1452 327,-5096 907,-9758 877,-14412 -106,-15161 -48,-30338 -772,-45476 -897,-18854 -8103,-35361 -20426,-49640 -12256,-14200 -27524,-24204 -44433,-31940 -2919,-1336 -5797,-2772 -8980,-3821 15666,20301 30167,41051 36087,66498l1 0z"/>
    <path class="fil0" d="M1335350 900833c-28023,-1324 -55248,1432 -81089,13801 358,372 596,744 935,958 10380,6563 20515,13572 31251,19488 6649,3665 14061,6210 21403,8300 16316,4642 32100,1825 47268,-5020 12707,-5735 25148,-12080 37958,-17568 8717,-3734 17866,-6456 26820,-9636 591,-209 1169,-466 2266,-904 -4161,-2962 -7819,-5907 -11797,-8328 -12949,-7886 -25828,-15913 -39083,-23261 -16509,-9151 -34340,-11704 -52965,-8733 -18522,2956 -35062,10681 -50532,20995 -2674,1780 -5407,3473 -7970,5628 25504,-2647 50777,-4069 75534,4280l1 0z"/>
    <path class="fil0" d="M1436852 969781c-28020,-1323 -55247,1433 -81087,13802 356,372 597,744 936,958 10380,6562 20512,13572 31251,19487 6647,3666 14062,6208 21403,8300 16313,4639 32100,1826 47265,-5020 12710,-5737 25151,-12079 37962,-17568 8714,-3733 17863,-6456 26818,-9636 594,-211 1167,-466 2268,-907 -4162,-2959 -7823,-5903 -11798,-8324 -12951,-7886 -25831,-15914 -39085,-23262 -16509,-9153 -34337,-11703 -52962,-8733 -18527,2956 -35062,10682 -50536,20993 -2671,1783 -5405,3476 -7971,5631 25506,-2648 50781,-4068 75536,4279l0 0z"/>
    <path class="fil0" d="M1550651 709593c-26947,-7799 -54069,-11444 -82074,-5418 260,444 406,862 686,1149 8573,8793 16800,17967 25868,26216 5616,5108 12232,9306 18889,13045 14788,8303 30796,9234 47140,6100 13693,-2627 27267,-5906 41001,-8268 9346,-1607 18877,-2131 28325,-3143 623,-66 1243,-178 2416,-353 -3362,-3845 -6236,-7560 -9540,-10839 -10763,-10679 -21427,-21479 -32611,-31705 -13931,-12737 -30679,-19363 -49482,-20798 -18705,-1430 -36589,2242 -54030,8678 -3014,1109 -6067,2121 -9062,3621 25423,3352 50335,7843 72474,21715z"/>
    <path class="fil0" d="M1517716 424230c-22119,17257 -40973,37088 -52515,63309 512,48 935,176 1333,118 12148,-1786 24405,-3074 36405,-5581 7429,-1553 14711,-4454 21642,-7652 15400,-7109 25538,-19533 32583,-34609 5900,-12632 11205,-25547 17347,-38058 4177,-8514 9342,-16539 14064,-24789 312,-544 584,-1112 1130,-2164 -5086,469 -9781,620 -14375,1372 -14962,2458 -29963,4761 -44804,7823 -18486,3818 -33675,13499 -45866,27890 -12126,14313 -19638,30948 -24652,48852 -868,3095 -1838,6160 -2379,9463 17622,-18625 35867,-36174 60087,-45974l0 0z"/>
    <path class="fil0" d="M1405103 237454c-22117,17252 -40975,37088 -52515,63306 511,50 937,174 1333,118 12148,-1787 24404,-3075 36404,-5581 7430,-1552 14711,-4455 21642,-7653 15401,-7109 25541,-19532 32584,-34609 5903,-12629 11205,-25547 17347,-38058 4177,-8511 9346,-16540 14064,-24788 311,-544 583,-1112 1131,-2160 -5087,465 -9782,615 -14376,1369 -14962,2457 -29963,4760 -44805,7822 -18485,3817 -33671,13499 -45865,27889 -12123,14312 -19638,30949 -24652,48852 -868,3095 -1838,6160 -2379,9464 17622,-18628 35869,-36175 60087,-45971l0 0z"/>
    <path class="fil0" d="M1166458 220301c4815,27636 5486,54993 -3555,82175 -414,-305 -813,-499 -1067,-806 -7807,-9480 -16032,-18656 -23244,-28570 -4467,-6139 -7918,-13173 -10908,-20198 -6643,-15605 -5824,-31619 -932,-47524 4106,-13323 8842,-26460 12687,-39856 2614,-9114 4171,-18532 6205,-27814 137,-614 318,-1218 616,-2364 3459,3760 6838,7021 9737,10664 9442,11863 19018,23640 27965,35869 11144,15233 15905,32605 15285,51457 -616,18747 -6215,36123 -14511,52763 -1433,2874 -2769,5798 -4589,8611 -558,-25635 -2311,-50891 -13689,-74407z"/>
    <path class="fil0" d="M1248310 387367c-22116,17256 -40974,37087 -52515,63305 511,51 937,175 1333,118 12149,-1786 24405,-3071 36405,-5579 7429,-1554 14711,-4452 21642,-7653 15400,-7110 25541,-19533 32583,-34607 5904,-12631 11206,-25550 17347,-38061 4178,-8512 9343,-16540 14064,-24785 312,-548 584,-1115 1130,-2164 -5086,466 -9780,616 -14375,1372 -14962,2455 -29964,4757 -44804,7822 -18487,3815 -33672,13496 -45865,27887 -12127,14312 -19638,30951 -24652,48855 -869,3092 -1838,6157 -2379,9463 17621,-18628 35869,-36174 60086,-45973l0 0z"/>
    <path class="fil0" d="M1260305 254169c-22117,17256 -40973,37087 -52516,63309 514,48 937,174 1333,114 12151,-1783 24405,-3071 36405,-5580 7432,-1553 14713,-4452 21645,-7649 15397,-7112 25538,-19534 32583,-34609 5900,-12632 11206,-25551 17344,-38061 4181,-8512 9346,-16540 14064,-24786 315,-544 584,-1116 1131,-2164 -5084,465 -9778,617 -14376,1372 -14958,2458 -29959,4761 -44804,7823 -18482,3814 -33672,13498 -45862,27886 -12126,14315 -19638,30952 -24655,48854 -864,3092 -1835,6158 -2376,9465 17619,-18629 35866,-36176 60084,-45974l0 0z"/>
    <path class="fil0" d="M1510465 572450c-14155,24218 -24329,49622 -25338,78253 492,-145 934,-185 1281,-387 10625,-6157 21530,-11888 31749,-18661 6326,-4197 12018,-9586 17268,-15123 11674,-12308 16494,-27603 17453,-44215 808,-13919 949,-27884 2018,-41779 732,-9451 2558,-18821 3888,-28230 87,-623 130,-1252 247,-2428 -4552,2315 -8856,4193 -12842,6596 -12989,7822 -26074,15518 -38724,23857 -15759,10392 -26282,25010 -32278,42891 -5964,17786 -6780,36020 -4809,54510 341,3192 575,6399 1293,9672 9474,-23829 19926,-46887 38793,-64956l1 0z"/>
    <path class="fil0" d="M439047 998303c6946,-27176 17559,-52400 36955,-73482 251,450 538,788 644,1175 3231,11845 6963,23589 9476,35588 1553,7429 1817,15265 1662,22896 -342,16958 -7659,31224 -18649,43720 -9207,10471 -18915,20506 -27917,31145 -6123,7241 -11407,15192 -17073,22821 -374,504 -788,979 -1531,1901 -1609,-4845 -3353,-9207 -4504,-13719 -3742,-14690 -7647,-29359 -10788,-44185 -3911,-18465 -1127,-36259 7170,-53195 8255,-16845 20487,-30396 34880,-42166 2485,-2034 4904,-4151 7717,-5972 -10004,23610 -18766,47358 -18042,73473l0 0z"/>
    <path class="fil0" d="M187031 735653c19230,-20420 40723,-37359 67901,-46421 0,514 86,946 -11,1336 -2901,11934 -5316,24015 -8924,35731 -2238,7257 -5799,14237 -9628,20841 -8506,14674 -21811,23621 -37478,29237 -13121,4707 -26474,8790 -39502,13747 -8862,3370 -17335,7771 -25982,11706 -572,260 -1165,478 -2258,926 934,-5021 1521,-9683 2696,-14185 3832,-14669 7514,-29396 11939,-43889 5514,-18051 16561,-32278 32019,-43085 15373,-10745 32635,-16685 50925,-20019 3161,-577 6302,-1260 9644,-1492 -20178,15820 -39341,32362 -51341,55567z"/>
    <path class="fil0" d="M236752 969168c27936,2570 55258,1025 81620,-10182 -338,-388 -561,-769 -891,-999 -10077,-7018 -19888,-14470 -30353,-20858 -6480,-3956 -13771,-6830 -21012,-9239 -16094,-5363 -31986,-3254 -47445,2913 -12947,5165 -25660,10949 -38702,15862 -8873,3345 -18134,5656 -27221,8434 -601,185 -1188,414 -2305,804 4028,3143 7550,6246 11415,8844 12586,8452 25097,17045 38015,24973 16085,9876 33784,13220 52520,11078 18637,-2129 35505,-9112 51417,-18725 2750,-1663 5555,-3231 8213,-5270 -25596,1512 -50909,1806 -75270,-7634l-1 -1zm77004 108762c6948,-27182 17558,-52405 36955,-73485 253,449 539,786 644,1175 3231,11847 6965,23590 9475,35587 1556,7432 1818,15265 1663,22896 -340,16960 -7659,31227 -18648,43724 -9207,10469 -18916,20503 -27917,31144 -6125,7238 -11410,15191 -17073,22820 -373,501 -789,980 -1533,1902 -1608,-4850 -3351,-9208 -4503,-13722 -3744,-14690 -7647,-29358 -10786,-44184 -3912,-18464 -1129,-36258 7169,-53199 8256,-16844 20486,-30390 34879,-42162 2487,-2034 4904,-4152 7720,-5971 -10007,23610 -18771,47357 -18045,73475l0 0z"/>
    <path class="fil0" d="M144424 468904c17594,21851 31426,45460 36680,73626 -512,-70 -953,-45 -1324,-191 -11423,-4513 -23060,-8563 -34172,-13744 -6878,-3207 -13308,-7692 -19323,-12390 -13372,-10437 -20409,-24845 -23824,-41132 -2865,-13644 -5078,-27433 -8203,-41013 -2125,-9240 -5324,-18236 -8035,-27343 -181,-601 -314,-1218 -607,-2363 4845,1613 9382,2832 13683,4615 14004,5806 28087,11473 41837,17842 17125,7935 29702,20829 38286,37623 8539,16703 12055,34615 12852,53189 137,3209 384,6413 155,9757 -12904,-22156 -26662,-43405 -48005,-58476l0 0z"/>
    <path class="fil0" d="M685478 676331c-19067,20578 -40421,37686 -67525,46968 -6,-514 -94,-945 -3,-1339 2809,-11954 5126,-24056 8641,-35799 2177,-7272 5681,-14282 9456,-20919 8387,-14742 21624,-23794 37242,-29537 13084,-4812 26405,-9002 39390,-14062 8836,-3443 17272,-7913 25888,-11918 568,-263 1158,-487 2252,-943 -894,5030 -1441,9694 -2584,14209 -3714,14699 -7279,29453 -11586,43979 -5368,18100 -16298,32412 -31671,43342 -15285,10872 -32498,16948 -50761,20430 -3156,601 -6293,1308 -9633,1568 20052,-15981 39079,-32677 50894,-55979l0 0z"/>
    <path class="fil0" d="M639117 575615c-19063,20578 -40422,37689 -67522,46968 -6,-514 -97,-946 -6,-1336 2809,-11955 5127,-24057 8642,-35803 2176,-7273 5682,-14281 9458,-20916 8387,-14744 21621,-23795 37239,-29537 13087,-4812 26408,-9005 39393,-14064 8835,-3443 17271,-7910 25886,-11916 572,-265 1160,-486 2251,-943 -894,5026 -1441,9693 -2580,14206 -3715,14700 -7279,29453 -11589,43982 -5365,18097 -16298,32409 -31668,43342 -15289,10870 -32503,16944 -50765,20426 -3155,605 -6290,1313 -9633,1573 20055,-15984 39082,-32679 50894,-55982l0 0z"/>
    <path class="fil0" d="M746933 437022c-19065,20577 -40421,37688 -67524,46968 -6,-513 -97,-946 -3,-1336 2807,-11957 5126,-24056 8641,-35802 2177,-7273 5680,-14282 9456,-20917 8387,-14745 21623,-23797 37241,-29540 13085,-4809 26406,-9001 39391,-14062 8835,-3442 17270,-7913 25889,-11918 567,-263 1157,-486 2251,-940 -898,5027 -1442,9690 -2584,14207 -3715,14698 -7279,29452 -11585,43981 -5368,18097 -16299,32409 -31672,43339 -15285,10872 -32499,16947 -50765,20430 -3155,601 -6289,1308 -9630,1569 20053,-15981 39080,-32678 50895,-55980l-1 1z"/>
    <path class="fil0" d="M947853 671785c19067,20578 40422,37690 67525,46969 6,-514 97,-947 3,-1336 -2808,-11954 -5126,-24057 -8641,-35803 -2176,-7273 -5680,-14283 -9455,-20918 -8388,-14743 -21625,-23796 -37242,-29536 -13085,-4812 -26406,-9004 -39391,-14064 -8835,-3443 -17271,-7911 -25888,-11916 -569,-266 -1157,-489 -2252,-943 898,5027 1441,9691 2585,14207 3714,14698 7278,29452 11585,43981 5368,18097 16298,32410 31671,43340 15285,10871 32499,16947 50765,20429 3156,602 6290,1312 9629,1569 -20051,-15982 -39078,-32678 -50894,-55980l0 1z"/>
    <path class="fil0" d="M994215 571072c19063,20578 40421,37686 67524,46969 6,-514 94,-950 4,-1339 -2809,-11956 -5127,-24058 -8643,-35801 -2176,-7275 -5682,-14285 -9454,-20920 -8389,-14741 -21624,-23793 -37242,-29536 -13085,-4812 -26405,-9004 -39390,-14065 -8839,-3443 -17272,-7910 -25888,-11915 -572,-266 -1162,-486 -2252,-943 894,5030 1440,9693 2584,14206 3711,14703 7278,29456 11585,43982 5366,18097 16299,32413 31667,43342 15290,10869 32503,16947 50766,20430 3155,601 6293,1309 9633,1568 -20053,-15980 -39082,-32677 -50894,-55978l0 0z"/>
    <path class="fil0" d="M886398 432479c19066,20575 40424,37685 67525,46968 5,-517 96,-949 2,-1339 -2804,-11954 -5123,-24056 -8637,-35802 -2180,-7273 -5683,-14282 -9459,-20917 -8387,-14740 -21624,-23794 -37241,-29537 -13084,-4812 -26405,-9004 -39391,-14065 -8835,-3442 -17271,-7910 -25889,-11914 -568,-266 -1157,-487 -2252,-944 898,5030 1445,9694 2585,14207 3715,14698 7278,29452 11585,43982 5368,18097 16302,32411 31671,43341 15289,10869 32502,16949 50765,20431 3156,601 6289,1308 9631,1567 -20053,-15980 -39080,-32676 -50895,-55978z"/>
    <path class="fil0" d="M433830 198882c1596,28007 7167,54797 22153,79213 333,-392 677,-666 856,-1030 5447,-11005 11368,-21811 16134,-33103 2957,-6994 4715,-14633 6030,-22151 2923,-16708 -1517,-32114 -9902,-46490 -7024,-12043 -14626,-23759 -21414,-35927 -4622,-8282 -8280,-17099 -12373,-25674 -269,-569 -582,-1116 -1136,-2161 -2512,4446 -5060,8390 -7055,12597 -6499,13700 -13145,27343 -19076,41289 -7384,17371 -8073,35368 -3182,53586 4866,18114 14267,33762 26130,48078 2049,2475 4017,5017 6426,7344 -5283,-25093 -9321,-50084 -3591,-75571l0 0z"/>
    <path class="fil0" d="M797874 90887c-15131,23621 -26330,48591 -28509,77156 501,-124 943,-146 1296,-333 10867,-5719 21998,-11002 32484,-17356 6496,-3932 12399,-9086 17873,-14406 12166,-11821 17604,-26905 19239,-43465 1372,-13874 2086,-27820 3721,-41661 1116,-9415 3322,-18704 5036,-28050 112,-616 178,-1243 344,-2415 -4642,2127 -9018,3829 -13102,6066 -13295,7288 -26681,14443 -39663,22262 -16169,9738 -27279,23915 -33999,41537 -6682,17528 -8242,35718 -7028,54268 211,3206 315,6419 901,9718 10435,-23423 21817,-46035 41407,-63322l0 1z"/>
    <path class="fil0" d="M86462 617862c27488,-5612 53198,-14983 75200,-33328 -435,-275 -758,-574 -1143,-699 -11673,-3808 -23220,-8109 -35083,-11200 -7345,-1917 -15156,-2561 -22787,-2778 -16955,-487 -31563,6126 -44578,16495 -10906,8685 -21406,17893 -32472,26365 -7529,5765 -15727,10655 -23622,15938 -523,352 -1018,738 -1977,1436 4764,1844 9035,3800 13485,5169 14489,4456 28950,9068 43607,12930 18250,4807 36159,2896 53482,-4567 17225,-7423 31356,-18983 43815,-32782 2152,-2386 4386,-4699 6341,-7419 -24068,8846 -48219,16438 -74268,14440l0 0z"/>
    <path class="fil0" d="M319694 892890c27714,4346 55077,4552 82106,-4948 -315,-408 -514,-805 -828,-1052 -9610,-7648 -18925,-15714 -28957,-22757 -6214,-4363 -13308,-7693 -20381,-10565 -15719,-6376 -31714,-5289 -47534,-123 -13252,4328 -26306,9289 -39636,13359 -9068,2769 -18460,4486 -27705,6677 -611,146 -1209,335 -2353,656 3819,3391 7137,6717 10831,9555 12018,9241 23954,18613 36337,27352 15423,10884 32868,15348 51709,14408 18734,-933 36011,-6825 52506,-15403 2849,-1481 5752,-2868 8535,-4733 -25643,-127 -50921,-1448 -74630,-12426l0 0z"/>
    <path class="fil0" d="M270104 378885c2612,24798 8700,48347 23045,69388 277,-363 572,-627 716,-953 4368,-10001 9162,-19850 12916,-30080 2324,-6336 3561,-13191 4409,-19924 1880,-14958 -2716,-28448 -10775,-40853 -6749,-10392 -13997,-20469 -20545,-30984 -4455,-7158 -8079,-14830 -12078,-22268 -266,-492 -565,-965 -1100,-1871 -2040,4056 -4135,7665 -5727,11486 -5185,12442 -10505,24837 -15178,37471 -5814,15739 -5658,31747 -540,47712 5089,15878 14106,29368 25247,41573 1926,2111 3781,4283 6022,6245 -5761,-22049 -10414,-44067 -6412,-66942l0 0z"/>
    <path class="fil0" d="M338984 268826c2611,24800 8698,48349 23044,69386 278,-362 572,-622 717,-949 4367,-10004 9161,-19852 12915,-30081 2324,-6335 3561,-13190 4407,-19922 1883,-14962 -2714,-28452 -10772,-40857 -6750,-10391 -13999,-20469 -20546,-30984 -4455,-7155 -8078,-14830 -12078,-22268 -265,-493 -564,-961 -1100,-1868 -2041,4054 -4135,7666 -5727,11486 -5184,12438 -10506,24837 -15177,37471 -5819,15736 -5659,31748 -541,47710 5089,15877 14106,29370 25247,41576 1926,2106 3781,4280 6022,6245 -5761,-22054 -10414,-44070 -6411,-66945l0 0z"/>
    <path class="fil0" d="M235008 240319c2609,24797 8696,48347 23045,69388 277,-364 572,-626 713,-954 4372,-10001 9165,-19849 12917,-30080 2323,-6335 3564,-13191 4410,-19922 1882,-14959 -2718,-28449 -10773,-40854 -6753,-10394 -14001,-20469 -20548,-30988 -4453,-7154 -8077,-14826 -12076,-22264 -265,-492 -567,-964 -1103,-1871 -2040,4056 -4134,7669 -5724,11486 -5188,12442 -10507,24840 -15177,37474 -5819,15736 -5661,31744 -541,47710 5090,15877 14106,29367 25247,41572 1926,2111 3782,4283 6019,6245 -5758,-22049 -10411,-44067 -6409,-66941l0 -1z"/>
    <path class="fil0" d="M178314 340189c7329,23833 17830,45772 35953,63660 206,-411 445,-723 521,-1070 2363,-10658 5174,-21243 6891,-32004 1061,-6665 958,-13629 495,-20399 -1030,-15041 -8137,-27394 -18429,-38018 -8623,-8902 -17673,-17396 -26121,-26458 -5746,-6166 -10778,-12996 -16134,-19529 -354,-432 -741,-837 -1439,-1622 -1221,4373 -2585,8317 -3412,12373 -2693,13203 -5532,26395 -7687,39691 -2681,16560 550,32242 8644,46923 8051,14602 19491,26109 32772,35942 2295,1698 4534,3476 7110,4972 -9897,-20532 -18692,-41244 -19163,-64461l-1 0z"/>
    <path class="fil0" d="M1389711 813561c-24568,-4259 -48884,-4833 -73041,3225 275,366 444,723 719,947 8430,6933 16597,14236 25415,20638 5459,3965 11715,7028 17960,9682 13877,5893 28110,5153 42244,789 11843,-3658 23513,-7881 35419,-11309 8097,-2329 16470,-3723 24716,-5540 547,-118 1082,-281 2101,-547 -3344,-3071 -6249,-6072 -9489,-8644 -10551,-8386 -21025,-16888 -31903,-24832 -13551,-9892 -28996,-14109 -45750,-13544 -16665,563 -32103,5552 -46888,12940 -2554,1276 -5150,2466 -7652,4086 22787,479 45236,2014 66149,12109z"/>
    <path class="fil0" d="M1257678 139306c-9745,22952 -15848,46498 -13509,71854 421,-181 804,-266 1089,-483 8671,-6629 17643,-12913 25885,-20040 5106,-4413 9516,-9806 13521,-15282 8901,-12169 11425,-26198 10394,-40951 -862,-12366 -2312,-24692 -2935,-37063 -423,-8418 130,-16885 239,-25333 9,-556 -28,-1115 -54,-2167 -3752,2557 -7336,4697 -10580,7266 -10570,8364 -21237,16624 -31448,25406 -12721,10939 -20350,25015 -23618,41458 -3249,16355 -1910,32526 1913,48603 663,2778 1231,5580 2234,8382 5662,-22077 12271,-43586 26869,-61650l0 0z"/>
    <path class="fil0" d="M999401 77596c985,24916 5523,48812 18466,70742 301,-345 613,-587 776,-901 5011,-9696 10437,-19212 14850,-29174 2732,-6172 4416,-12930 5701,-19593 2853,-14804 -856,-28566 -8086,-41470 -6058,-10811 -12633,-21340 -18480,-32260 -3978,-7431 -7095,-15325 -10600,-23009 -229,-506 -498,-996 -974,-1931l-7 0c-2298,3911 -4622,7377 -6458,11081 -5985,12075 -12102,24099 -17588,36401 -6834,15325 -7721,31311 -3655,47573 4045,16177 12160,30230 22482,43133 1784,2230 3494,4522 5601,6626 -4310,-22381 -7514,-44654 -2028,-67218z"/>
    <path class="fil0" d="M1357714 369941c-17256,18000 -31317,37849 -38127,62387 459,-21 846,32 1187,-67 10462,-3119 21077,-5815 31315,-9552 6339,-2312 12375,-5791 18063,-9491 12641,-8218 19977,-20438 24250,-34596 3583,-11864 6599,-23906 10408,-35694 2590,-8019 6112,-15739 9213,-23598 203,-517 369,-1051 716,-2045 -4413,1057 -8524,1788 -12471,3040 -12846,4068 -25750,8007 -38415,12593 -15775,5713 -27901,16167 -36791,30379 -8841,14137 -13330,29731 -15458,46119 -368,2833 -831,5653 -885,8631 13124,-18636 26941,-36396 46996,-48106l-1 0z"/>
    <path class="fil0" d="M957296 273401c19874,15055 41219,26724 66376,30647 -72,-451 -60,-844 -202,-1170 -4311,-10029 -8215,-20264 -13109,-29996 -3035,-6030 -7188,-11622 -11519,-16845 -9625,-11604 -22613,-17477 -37173,-20086 -12198,-2182 -24507,-3787 -36655,-6203 -8267,-1644 -16344,-4249 -24508,-6420 -537,-145 -1088,-247 -2115,-473 1563,4262 2766,8257 4462,12032 5528,12290 10936,24653 16956,36700 7502,15008 19288,25843 34434,33029 15065,7145 31073,9796 47597,10013 2856,39 5710,173 8675,-117 -20028,-10882 -39270,-22546 -53219,-41111l0 0z"/>
    <path class="fil0" d="M1388702 471567c-11208,22274 -18819,45375 -18121,70832 433,-154 819,-214 1116,-414 9083,-6054 18441,-11746 27128,-18326 5380,-4074 10125,-9170 14478,-14379 9669,-11566 13091,-25401 13018,-40194 -60,-12392 -713,-24786 -535,-37173 118,-8429 1219,-16841 1874,-25263 43,-555 45,-1118 85,-2170 -3908,2313 -7623,4216 -11026,6572 -11088,7662 -22265,15215 -33023,23318 -13402,10096 -21923,23650 -26245,39848 -4302,16110 -4008,32335 -1230,48625 480,2814 864,5645 1686,8509 7076,-21667 15062,-42704 30795,-59785l0 0z"/>
    <path class="fil0" d="M522408 137276c-3669,24660 -3660,48987 4969,72941 363,-281 710,-459 932,-741 6731,-8593 13835,-16928 20025,-25897 3834,-5553 6746,-11882 9249,-18187 5562,-14014 4479,-28226 -221,-42250 -3939,-11753 -8437,-23320 -12148,-35139 -2524,-8043 -4117,-16376 -6129,-24580 -134,-540 -307,-1072 -599,-2085 -2989,3416 -5918,6390 -8415,9690 -8131,10749 -16379,21425 -24060,32490 -9567,13784 -13415,29323 -12450,46059 961,16646 6317,31964 14055,46566 1340,2524 2590,5090 4268,7551 -67,-22790 934,-45273 10524,-66418z"/>
    <path class="fil0" d="M713679 240873c-19136,15983 -35298,34161 -44773,57797 455,28 837,128 1187,65 10739,-1947 21587,-3453 32176,-6037 6556,-1602 12937,-4392 19000,-7441 13469,-6771 22108,-18108 27920,-31710 4867,-11399 9194,-23030 14278,-34326 3461,-7686 7814,-14971 11762,-22437 260,-495 487,-1006 940,-1956 -4504,566 -8672,837 -12731,1645 -13218,2627 -26476,5114 -39569,8276 -16310,3941 -29516,12992 -39921,26137 -10345,13076 -16528,28076 -20451,44133 -679,2772 -1450,5522 -1830,8476 15099,-17070 30790,-33201 52012,-42622z"/>
    <path class="fil0" d="M433310 345010c11290,22231 25382,42057 46291,56590 131,-438 312,-786 331,-1142 510,-10906 1474,-21814 1327,-32711 -91,-6747 -1379,-13592 -2994,-20185 -3580,-14645 -12691,-25605 -24645,-34316 -10014,-7300 -20382,-14126 -30251,-21612 -6716,-5093 -12840,-10969 -19229,-16488 -424,-366 -875,-699 -1700,-1355 -455,4516 -1124,8637 -1248,12774 -402,13472 -949,26950 -801,40422 181,16775 6046,31674 16525,44758 10422,13016 23658,22401 38423,29825 2551,1281 5060,2650 7853,3683 -13251,-18543 -25456,-37449 -29881,-60243l-1 0z"/>
    <path class="fil0" d="M313615 712500c11770,15742 25393,29235 43598,37698 43,-359 136,-653 100,-934 -1076,-8536 -1802,-17141 -3388,-25583 -983,-5227 -2908,-10368 -5051,-15271 -4760,-10889 -13315,-18171 -23777,-23322 -8765,-4317 -17739,-8216 -26414,-12695 -5904,-3050 -11453,-6786 -17162,-10211 -377,-226 -774,-422 -1503,-821 257,3569 293,6861 756,10089 1509,10518 2904,21059 4839,31501 2410,13004 8975,23783 18880,32530 9853,8699 21402,14200 33871,17970 2155,652 4289,1374 6599,1801 -12799,-12611 -24832,-25644 -31348,-42752l0 0z"/>
    <path class="fil0" d="M382219 496987c10855,16389 18967,33763 20799,53751 -351,-81 -659,-91 -910,-217 -7675,-3890 -15531,-7475 -22944,-11812 -4595,-2685 -8785,-6233 -12678,-9902 -8650,-8149 -12622,-18662 -13945,-30245 -1110,-9706 -1756,-19469 -3054,-29150 -878,-6583 -2526,-13067 -3826,-19599 -88,-429 -138,-867 -269,-1686 3273,1442 6359,2584 9246,4111 9390,4959 18846,9829 28026,15171 11431,6649 19368,16460 24265,28736 4870,12207 6157,24936 5505,37945 -112,2249 -152,4501 -526,6819 -7560,-16298 -15779,-32018 -29689,-43921l0 -1z"/>
    <path class="fil0" d="M360550 138058c10854,16385 18968,33760 20799,53748 -351,-81 -663,-91 -913,-218 -7675,-3890 -15530,-7474 -22944,-11809 -4592,-2687 -8784,-6236 -12678,-9902 -8648,-8152 -12618,-18661 -13942,-30247 -1110,-9706 -1760,-19469 -3054,-29148 -883,-6586 -2527,-13069 -3829,-19598 -85,-432 -140,-871 -270,-1690 3277,1443 6363,2585 9246,4112 9395,4963 18850,9828 28029,15170 11432,6650 19367,16462 24263,28737 4873,12207 6160,24936 5506,37945 -114,2249 -150,4501 -524,6819 -7563,-16301 -15782,-32018 -29689,-43918l0 -1z"/>
    <path class="fil0" d="M1127198 97949c-3420,19356 -9504,37540 -21941,53293 -200,-301 -418,-522 -512,-786 -2884,-8106 -6111,-16116 -8499,-24368 -1479,-5108 -2076,-10569 -2369,-15907 -657,-11870 3702,-22223 10720,-31536 5883,-7801 12136,-15325 17864,-23234 3896,-5381 7170,-11215 10724,-16846 235,-371 499,-725 967,-1408 1382,3300 2829,6257 3872,9349 3391,10065 6892,20109 9869,30301 3708,12695 2702,25276 -2200,37548 -4879,12205 -12710,22319 -22144,31302 -1631,1551 -3210,3159 -5078,4579 5743,-17023 10613,-34080 8727,-52287l0 0z"/>
    <path class="fil0" d="M609326 193654c4846,19048 6780,38126 1920,57601 -306,-193 -593,-305 -789,-508 -5964,-6202 -12200,-12175 -17770,-18713 -3449,-4050 -6236,-8781 -8702,-13526 -5480,-10549 -5765,-21782 -3194,-33155 2152,-9527 4757,-18958 6724,-28524 1340,-6509 1922,-13173 2847,-19765 61,-435 154,-868 302,-1684 2618,2443 5154,4540 7376,6931 7229,7779 14554,15494 21458,23561 8602,10047 12858,21926 13434,35129 576,13133 -2406,25571 -7311,37640 -846,2086 -1624,4198 -2744,6264 -1766,-17883 -4341,-35432 -13551,-51252l0 1z"/>
    <path class="fil0" d="M884318 151133c-3591,19328 -9836,37454 -22413,53099 -196,-302 -413,-526 -505,-792 -2811,-8131 -5970,-16167 -8285,-24441 -1432,-5124 -1979,-10585 -2228,-15928 -549,-11873 3900,-22190 11004,-31439 5947,-7747 12268,-15219 18065,-23074 3945,-5347 7270,-11154 10873,-16752 238,-369 504,-723 982,-1400 1351,3313 2775,6282 3788,9383 3303,10096 6716,20170 9602,30389 3595,12728 2479,25296 -2536,37526 -4984,12163 -12906,22204 -22418,31104 -1645,1537 -3237,3130 -5121,4535 5897,-16972 10918,-33986 9192,-52210l0 0z"/>
    <path class="fil0" d="M484197 573114c4434,19150 5957,38265 679,57630 -301,-196 -590,-316 -780,-522 -5826,-6330 -11933,-12436 -17361,-19092 -3361,-4123 -6048,-8913 -8412,-13710 -5251,-10664 -5293,-21899 -2482,-33215 2357,-9480 5165,-18853 7339,-28375 1478,-6476 2204,-13127 3270,-19697 70,-435 173,-865 339,-1677 2564,2496 5054,4648 7224,7085 7064,7937 14216,15805 20947,24017 8384,10229 12387,22199 12677,35410 294,13142 -2953,25514 -8116,37475 -895,2067 -1716,4165 -2881,6202 -1377,-17912 -3578,-35515 -12443,-51530l0 -1z"/>
    <path class="fil0" d="M282071 807301c19484,-2608 37904,-7928 54165,-19698 -293,-212 -505,-438 -765,-545 -7979,-3219 -15847,-6779 -23990,-9509 -5045,-1689 -10474,-2514 -15800,-3032 -11827,-1151 -22355,2772 -31951,9398 -8041,5549 -15818,11486 -23961,16878 -5540,3670 -11503,6695 -17277,10011 -381,218 -747,466 -1452,909 3244,1518 6134,3087 9181,4257 9917,3808 19804,7725 29864,11126 12532,4234 25141,3757 37606,-631 12400,-4365 22830,-11768 32201,-20821 1616,-1562 3288,-3073 4788,-4881 -17250,5030 -34494,9182 -52609,6538l0 0z"/>
    <path class="fil0" d="M1157233 803399c-12931,14802 -23277,30945 -27745,50517 361,-33 668,-3 931,-96 8125,-2838 16385,-5348 24311,-8663 4906,-2052 9533,-5012 13876,-8130 9655,-6935 14987,-16825 17837,-28129 2385,-9474 4326,-19067 6891,-28489 1748,-6408 4238,-12616 6393,-18915 142,-418 255,-843 493,-1638 -3439,994 -6650,1719 -9711,2847 -9966,3673 -19986,7245 -29791,11316 -12215,5075 -21379,13750 -27862,25266 -6448,11456 -9413,23898 -10493,36879 -183,2243 -446,4483 -380,6829 9655,-15153 19886,-29642 35250,-39594l0 0z"/>
    <path class="fil0" d="M673747 129114c-7560,18145 -12238,36741 -10256,56717 331,-149 632,-215 853,-388 6801,-5275 13837,-10276 20297,-15938 4002,-3509 7448,-7783 10573,-12123 6952,-9640 8865,-20712 7974,-32337 -747,-9742 -1958,-19453 -2518,-29201 -382,-6634 9,-13312 51,-19967 0,-441 -27,-883 -57,-1711 -2944,2037 -5755,3743 -8300,5785 -8285,6650 -16648,13221 -24650,20200 -9968,8693 -15905,19832 -18389,32810 -2473,12911 -1330,25651 1771,38303 538,2186 1000,4390 1808,6593 4340,-17435 9436,-34425 20843,-48743l0 0z"/>
    <path class="fil0" d="M967086 165667c9416,17253 20984,32545 37801,43504 94,-347 227,-625 233,-907 145,-8606 649,-17222 281,-25807 -230,-5314 -1409,-10676 -2833,-15832 -3164,-11456 -10600,-19880 -20223,-26463 -8063,-5516 -16392,-10652 -24346,-16319 -5409,-3857 -10369,-8343 -15534,-12544 -343,-278 -705,-529 -1371,-1028 -253,3572 -685,6834 -685,10096 0,10624 -115,21258 317,31870 535,13212 5504,24816 14067,34882 8518,10010 19166,17095 30976,22596 2040,952 4048,1970 6272,2720 -10875,-14300 -20932,-28911 -24955,-46768z"/>
    <path class="fil0" d="M1169865 620029c-12931,14805 -23278,30948 -27745,50517 357,-33 665,-3 931,-96 8125,-2836 16385,-5345 24311,-8661 4905,-2055 9530,-5014 13877,-8133 9654,-6931 14986,-16821 17834,-28129 2387,-9473 4325,-19064 6894,-28485 1747,-6411 4238,-12619 6393,-18919 142,-417 253,-843 488,-1638 -3436,995 -6645,1720 -9708,2848 -9968,3671 -19984,7244 -29791,11319 -12213,5075 -21381,13747 -27862,25263 -6447,11456 -9412,23900 -10491,36882 -187,2243 -447,4480 -380,6825 9653,-15149 19885,-29639 35250,-39593l-1 0z"/>
    <path class="fil0" d="M1077430 427752c-12933,14804 -23280,30948 -27748,50516 360,-32 669,-3 935,-97 8121,-2837 16382,-5347 24307,-8659 4909,-2056 9534,-5015 13877,-8134 9654,-6930 14986,-16821 17837,-28128 2388,-9473 4325,-19064 6891,-28485 1747,-6412 4241,-12620 6396,-18919 142,-417 254,-844 490,-1639 -3437,995 -6647,1721 -9709,2848 -9968,3672 -19985,7245 -29791,11319 -12214,5075 -21382,13747 -27866,25263 -6447,11456 -9409,23897 -10488,36882 -187,2243 -450,4480 -384,6825 9657,-15149 19886,-29639 35253,-39592l0 0z"/>
    <path class="fil0" d="M1053170 210308c681,19644 4163,38499 14276,55840 238,-273 487,-460 617,-711 3989,-7623 8306,-15101 11821,-22935 2179,-4854 3533,-10177 4574,-15425 2308,-11658 -560,-22522 -6209,-32723 -4734,-8544 -9875,-16872 -14439,-25504 -3108,-5870 -5531,-12106 -8263,-18178 -183,-399 -394,-789 -763,-1533 -1828,3077 -3675,5800 -5141,8717 -4764,9494 -9636,18950 -14009,28624 -5448,12055 -6209,24650 -3069,37488 3122,12767 9464,23875 17549,34091 1400,1762 2736,3576 4390,5244 -3310,-17661 -5747,-35230 -1334,-52995l0 0z"/>
    <path class="fil0" d="M1288294 555255c-12931,14805 -23278,30948 -27745,50517 357,-33 665,-3 931,-96 8125,-2839 16385,-5345 24311,-8661 4905,-2055 9530,-5014 13877,-8134 9654,-6930 14985,-16821 17834,-28128 2388,-9473 4325,-19064 6894,-28485 1747,-6411 4237,-12620 6393,-18919 142,-417 253,-844 489,-1638 -3436,993 -6646,1720 -9708,2847 -9970,3672 -19986,7245 -29791,11319 -12214,5075 -21382,13748 -27862,25264 -6448,11455 -9413,23899 -10493,36881 -186,2243 -447,4480 -384,6826 9659,-15150 19890,-29641 35254,-39594l0 1z"/>
    <path class="fil0" d="M1585254 617744c-18088,7693 -34434,17719 -46978,33391 338,128 605,287 883,320 8548,983 17078,2322 25656,2787 5310,291 10763,-359 16031,-1278 11710,-2034 20817,-8618 28307,-17553 6272,-7490 12194,-15279 18607,-22642 4365,-5008 9313,-9512 13996,-14246 307,-311 595,-649 1154,-1260 -3528,-601 -6731,-1348 -9981,-1665 -10572,-1033 -21146,-2183 -31747,-2784 -13205,-750 -25232,3064 -36083,10609 -10791,7505 -18880,17413 -25505,28630 -1146,1940 -2355,3839 -3316,5980 15289,-9435 30809,-18025 48976,-20289z"/>
    <path class="fil0" d="M1485758 319908c-18087,7696 -34430,17721 -46974,33394 338,126 601,287 882,320 8548,982 17078,2321 25653,2786 5314,291 10767,-359 16035,-1278 11710,-2034 20817,-8618 28303,-17552 6276,-7489 12197,-15280 18611,-22642 4365,-5012 9310,-9513 13994,-14246 309,-311 596,-649 1156,-1263 -3528,-599 -6735,-1345 -9981,-1664 -10573,-1033 -21147,-2182 -31746,-2783 -13207,-749 -25237,3065 -36085,10610 -10793,7504 -18879,17413 -25505,28630 -1145,1937 -2353,3839 -3319,5979 15292,-9434 30813,-18024 48976,-20291l0 0z"/>
    <path class="fil0" d="M1407085 634683c-18733,-5949 -35954,-14381 -49927,-28796 326,-158 573,-342 849,-403 8415,-1785 16782,-3925 25275,-5204 5263,-790 10752,-659 16084,-245 11848,918 21538,6607 29838,14795 6956,6861 13587,14055 20669,20781 4818,4573 10171,8587 15279,12855 339,282 657,589 1270,1145 -3456,935 -6574,1981 -9779,2603 -10427,2032 -20843,4174 -31341,5776 -13073,1998 -25411,-661 -36927,-7145 -11453,-6447 -20442,-15548 -28098,-26088 -1324,-1819 -2708,-3597 -3870,-5637 16117,7943 32380,15025 50678,15563l0 0z"/>
    <path class="fil0" d="M1288021 742669c-15131,12547 -27922,26829 -35461,45433 359,23 659,102 934,55 8473,-1503 17030,-2661 25381,-4667 5175,-1243 10214,-3425 15001,-5810 10637,-5299 17480,-14209 22102,-24916 3869,-8971 7315,-18129 11356,-27019 2751,-6047 6199,-11779 9333,-17651 210,-388 388,-793 747,-1539 -3551,432 -6837,635 -10038,1260 -10428,2032 -20886,3957 -31218,6412 -12867,3055 -23304,10153 -31543,20486 -8195,10278 -13109,22087 -16250,34731 -541,2182 -1157,4349 -1469,6676 11955,-13414 24368,-26082 41125,-33451l0 0z"/>
    <path class="fil0" d="M576038 398520c12387,15261 26533,28207 45058,35939 27,-360 110,-659 64,-934 -1415,-8488 -2478,-17058 -4398,-25430 -1189,-5186 -3316,-10247 -5653,-15058 -5186,-10694 -14024,-17631 -24682,-22365 -8929,-3965 -18048,-7508 -26895,-11639 -6021,-2815 -11713,-6327 -17553,-9522 -386,-211 -789,-393 -1532,-762 396,3558 562,6843 1154,10050 1923,10449 3736,20929 6082,31285 2920,12900 9908,23410 20152,31758 10192,8304 21947,13342 34557,16616 2179,565 4338,1202 6662,1539 -13287,-12094 -25825,-24644 -33016,-41477l0 0z"/>
    <path class="fil0" d="M244847 551476c19484,-2608 37904,-7928 54166,-19698 -293,-212 -505,-438 -765,-544 -7980,-3220 -15848,-6780 -23991,-9510 -5044,-1689 -10473,-2514 -15798,-3031 -11829,-1151 -22356,2772 -31953,9398 -8039,5550 -15817,11482 -23960,16874 -5537,3670 -11504,6696 -17277,10015 -382,217 -747,465 -1451,906 3243,1518 6136,3090 9179,4260 9917,3808 19804,7725 29863,11126 12532,4234 25143,3753 37609,-632 12397,-4365 22829,-11767 32199,-20820 1617,-1562 3288,-3074 4788,-4881 -17250,5030 -34494,9183 -52609,6537l0 0z"/>
    <path class="fil0" d="M58902 535261c19140,4476 38252,6038 57629,803 -196,-302 -313,-586 -523,-777 -6317,-5843 -12408,-11964 -19051,-17404 -4117,-3373 -8901,-6069 -13696,-8442 -10648,-5275 -21884,-5341 -33207,-2554 -9484,2336 -18863,5123 -28390,7275 -6481,1466 -13131,2176 -19705,3231 -435,70 -864,169 -1678,335 2491,2569 4637,5063 7071,7237 7919,7082 15771,14251 23972,21001 10211,8407 22171,12433 35382,12753 13139,320 25521,-2898 37492,-8038 2068,-885 4166,-1704 6209,-2864 -17911,-1419 -35509,-3655 -51505,-12556z"/>
    <path class="fil0" d="M628377 754687c-1620,625 -3239,1326 -4751,2137 -1439,-2026 -2838,-4054 -4237,-6042 -811,-1219 -1659,-2397 -2470,-3612 811,441 1620,886 2434,1363 2910,2173 5930,4237 9024,6154z"/>
    <path class="fil0" d="M819569 699744c30623,2390 58571,31810 57201,60225 -1533,31820 -33088,60697 -63619,58218 -30350,-2468 -56760,-32787 -54553,-62629 2347,-31726 31197,-58133 60971,-55814zm42550 345359c-6154,-10094 -11789,-18278 -16395,-26974 -31290,-59363 -77463,-110440 -129606,-152156 -33825,-27082 -70084,-50003 -104469,-75534 4722,4799 -29704,32472 -33506,34942 -22027,14309 -42395,6790 -66379,15316 -16181,5751 -29773,17052 -38560,31800 -32908,55238 -86415,83208 -138115,114420 -1693,995 -5122,-809 -14370,-2578 28777,-22775 56821,-40203 78600,-63493 22367,-23842 38618,-53399 60248,-84425 -22955,-14593 -41270,-26199 -61356,-38989 -19011,10838 -36664,20897 -64635,36818 9694,-14596 12790,-20456 17028,-25356 5121,-5934 11236,-11056 20561,-20084 -17431,-7443 -31948,-13673 -46468,-19900 29481,-7699 56159,-1510 82396,8957 16251,6483 32983,11791 49124,18498 31579,13120 61869,10648 91388,-5823 7221,-5158 14517,-10318 21593,-15698 -8475,-21225 -21999,-41604 -40386,-60102 -33571,-33719 -71085,-53729 -120209,-32834 -9946,4238 -22660,11975 -35412,-5122 18092,-8108 33497,-15036 48643,-21814 -6154,-45622 -17248,-62904 -45509,-62058 -38655,1107 -75581,8403 -102737,41679 -28855,35378 -75616,38103 -113721,9175 59180,7297 59180,7297 83135,-20857 -29924,-23434 -70421,-32058 -102447,-69239 47280,13706 72966,51588 117185,51257 19419,-14409 39319,-29113 58261,-43152 -18498,-30771 -31140,-61431 -52292,-84167 -21741,-23437 -51773,-39134 -78564,-58519 3650,-3612 5345,-5893 5823,-5673 44295,20930 89067,41013 116815,85051 17431,27671 39763,51145 73038,58074 38618,8032 65998,28339 85014,62904 9801,17799 23582,34050 50042,31542 12564,-35412 5304,-69349 -886,-103291 -9766,-32354 -29847,-55200 -61684,-67691 -16254,-6415 -31989,-14225 -48167,-20859 -26125,-10686 -49637,-24800 -65482,-50817 14778,5638 29557,11241 47280,17984 -443,-12973 -1290,-20895 -849,-28745 368,-6447 2211,-12821 5380,-30070 9030,30884 14740,50376 20895,71381 23327,4789 44552,9137 71232,14628 5970,-37328 14813,-69903 15330,-102590 513,-31875 -7517,-63861 -12419,-100268 7885,5160 11610,6225 12123,8144 15515,58368 34531,115634 19826,178243 -7150,30513 5159,58849 27674,76205 441,-12637 -1951,-26125 -7850,-40645 -4090,-10022 -11642,-22849 5676,-35302 7813,18204 14483,33719 21043,48973 45732,-5453 63160,-16248 62753,-44550 -515,-38693 -7182,-75691 -40055,-103364 -34931,-29443 -36923,-76207 -7404,-113868 -8218,59071 -8218,59071 19564,83428 23918,-29516 33128,-69870 70827,-101337 -14445,47057 -52732,72189 -53063,116373 14076,19678 28487,39761 42230,58960 31026,-18022 61872,-30183 84976,-50965 23733,-21373 39947,-51149 59733,-77641 3538,3681 5822,5417 5566,5893 -21594,43964 -42415,88443 -86855,115489 -27935,16990 -51778,38917 -59219,72079 -8657,38491 -29351,65568 -64147,84031 -85803,45536 -31027,178408 27234,223388 -1378,-533 -1623,-1047 -731,-1535 48880,25689 98071,52227 143810,83256 44771,30327 79301,69795 96659,122232 10057,30400 9064,53433 -4757,86965l-1 0zm609358 -302873c-41569,23735 -87557,14963 -111620,-23913 -22590,-36522 -58226,-48533 -96436,-54687 -27936,-4495 -41162,11202 -53178,55644 14117,8696 28521,17541 45402,27933 -14852,15328 -26459,6004 -35784,478 -45989,-27084 -85787,-12123 -123446,16952 -24139,18646 -42012,40683 -53066,64525 15772,10022 33055,17394 50155,25020 32206,10135 62386,6413 90652,-12821 14480,-9842 29772,-18426 44365,-28044 23587,-15551 48497,-27049 78897,-25466 -12970,9028 -25944,18097 -41492,28931 10981,6925 17983,10722 24209,15511 5123,3908 9361,9027 21817,21374 -30621,-9950 -49932,-16214 -70755,-22994 -17097,16581 -32649,31655 -52213,50631 27489,25979 49376,51628 76093,70459 26056,18389 57007,29811 89841,46285 -8696,3572 -11682,6076 -13561,5415 -56933,-20083 -115006,-36664 -158418,-84089 -15344,-16767 -37343,-25426 -59974,-23808 -57193,4088 -72325,-18608 -116724,-45326 334,-737 666,-1438 960,-2177 -34827,34421 -77350,61617 -127833,81663 -19938,-24875 -38583,-48126 -60435,-75358 16324,-3317 29774,-5824 43125,-8772 60888,-13461 122863,-38659 165897,-85385 54940,-59651 80420,-150643 14838,-211534 -27748,-25761 -47528,-46959 -53061,-86434 -4716,-33641 -26643,-57484 -53063,-76721 -42082,-30623 -59144,-76650 -77091,-122272 -183,-476 2212,-2024 6044,-5415 17541,28043 31250,59072 53141,82324 21295,22588 51034,37255 80477,57779 15292,-17982 31325,-36812 46985,-55272 3278,-44074 -32800,-72230 -43335,-120316 34969,34415 40865,75393 62239,106828 29700,-22037 29700,-22037 26384,-81588 26310,39984 20489,86452 -16766,112912 -35010,24837 -44735,61206 -48460,99715 -2691,28153 13784,40351 58886,49560 7778,-14665 15701,-29588 25024,-47091 16215,13856 7626,26017 2765,35670 -11941,23548 -13712,44958 -8625,64894 25206,-14150 41605,-40978 38436,-72596 -6450,-64009 19860,-118327 42819,-174190 737,-1844 4568,-2397 13044,-6485 -9545,35447 -21669,66146 -25317,97798 -3758,32502 813,65928 1880,103697 27159,-1951 48790,-3499 72521,-5230 8847,-20011 17025,-38583 29962,-68064 956,17541 1954,24063 1473,30513 -627,7850 -2468,15587 -4609,28374 18462,-4346 33829,-7995 49233,-11643 -19089,23731 -44222,34639 -71523,41860 -16915,4461 -33536,10169 -50486,14407 -33165,8256 -56049,28302 -69978,59108 -10540,32834 -22112,65557 -14300,102296 25942,5937 41680,-8401 53727,-24799 23365,-31763 53141,-48309 92496,-51292 33899,-2548 59070,-22924 79964,-48092 33201,-40057 80225,-54135 126876,-69135 516,-182 1878,2323 5009,6380 -29072,15733 -60913,27415 -85489,47793 -23915,19826 -40424,48568 -62797,76649 16992,16396 34788,33571 52184,50373 43776,6081 74179,-28116 122858,-35560 -36594,32687 -77868,35966 -110589,55315 20085,31026 20085,31026 79746,31502l0 1zm-447758 494120l-182592 0c704,-26186 -19144,-56289 -27933,-79137 -9295,-24148 -18633,-48315 -29934,-71609 -19197,-39580 -34825,-81219 -42341,-124701 -2026,-11683 -3572,-23437 -4606,-35230 -626,-6742 1806,-24652 -1583,-30032 40645,63749 84901,125215 132918,183658 28449,34642 56344,70053 88663,101265 21105,20367 43883,38559 67408,55786z"/>
    <path class="fil0" d="M628377 754687c-1620,625 -3239,1326 -4751,2137 -1439,-2026 -2838,-4054 -4237,-6042 -811,-1219 -1659,-2397 -2470,-3612 -3832,-2173 -7665,-4347 -11462,-6524 665,-809 1327,-1656 1917,-2505 2802,2802 5713,5417 8771,7886 1068,850 2102,1659 3208,2506 2910,2173 5930,4237 9024,6154z"/>
    <path class="fil0" d="M616919 747170c-3832,-2173 -7665,-4348 -11462,-6524 665,-809 1327,-1656 1917,-2505 628,-810 1218,-1620 1807,-2470 2321,3464 4643,6928 6964,10356 257,404 517,774 774,1143l0 0z"/>
   </g>
  </g>
 </g>
</svg>
